<?xml version="1.0" encoding="UTF-8" standalone="no"?>
<svg
   xmlns:dc="http://purl.org/dc/elements/1.1/"
   xmlns:cc="http://creativecommons.org/ns#"
   xmlns:rdf="http://www.w3.org/1999/02/22-rdf-syntax-ns#"
   xmlns:svg="http://www.w3.org/2000/svg"
   xmlns="http://www.w3.org/2000/svg"
   xmlns:sodipodi="http://sodipodi.sourceforge.net/DTD/sodipodi-0.dtd"
   xmlns:inkscape="http://www.inkscape.org/namespaces/inkscape"
   inkscape:version="1.0 (4035a4f, 2020-05-01)"
   sodipodi:docname="OrbitCozy.svg"
   viewBox="0 0 933.33331 933.33331"
   height="933.33331"
   width="933.33331"
   xml:space="preserve"
   id="svg10"
   version="1.1"><metadata
     id="metadata16"><rdf:RDF><cc:Work
         rdf:about=""><dc:format>image/svg+xml</dc:format><dc:type
           rdf:resource="http://purl.org/dc/dcmitype/StillImage" /><dc:title></dc:title></cc:Work></rdf:RDF></metadata><defs
     id="defs14"><clipPath
       id="clipPath28"
       clipPathUnits="userSpaceOnUse"><path
         id="path26"
         d="M 0,700 V 0 h 700 v 700 z" /></clipPath><clipPath
       id="clipPath50"
       clipPathUnits="userSpaceOnUse"><path
         id="path48"
         d="M 0,700 V 0 h 700 v 700 z" /></clipPath><filter
       height="2.885079"
       y="-0.94253948"
       width="2.885079"
       x="-0.94253948"
       id="filter1362"
       style="color-interpolation-filters:sRGB"
       inkscape:collect="always"><feGaussianBlur
         id="feGaussianBlur1364"
         stdDeviation="9.8181195"
         inkscape:collect="always" /></filter></defs><sodipodi:namedview
     inkscape:snap-global="false"
     inkscape:current-layer="g18"
     inkscape:window-maximized="0"
     inkscape:window-y="0"
     inkscape:window-x="0"
     inkscape:cy="425.61767"
     inkscape:cx="493.04828"
     inkscape:zoom="0.63421325"
     inkscape:snap-bbox-midpoints="true"
     inkscape:bbox-nodes="false"
     inkscape:snap-bbox-edge-midpoints="true"
     inkscape:snap-bbox="true"
     inkscape:lockguides="true"
     inkscape:guide-bbox="true"
     showguides="true"
     showgrid="false"
     id="namedview12"
     inkscape:window-height="800"
     inkscape:window-width="1280"
     inkscape:pageshadow="2"
     inkscape:pageopacity="0"
     guidetolerance="10"
     gridtolerance="10"
     objecttolerance="10"
     borderopacity="1"
     bordercolor="#666666"
     pagecolor="#ffffff" /><g
     transform="matrix(1.3333333,0,0,-1.3333333,0,933.33333)"
     inkscape:label="cozy"
     inkscape:groupmode="layer"
     id="g18"><path
       d="M 0,700 H 700 V 0 H 0 Z"
       style="fill:#001d30;fill-opacity:1;fill-rule:nonzero;stroke:none"
       id="path32" /><path
       d="m 319.49493,350.88341 c 0,0 -1.09264,1.42043 -2.76803,2.18528 0,0 -1.67539,0.76485 -3.46004,0.76485 0,0 -2.18528,0 -3.95172,-0.81948 0,0 -1.76644,-0.81948 -3.02298,-2.23992 0,0 -1.25654,-1.42043 -1.94854,-3.33256 0,0 -0.69201,-1.91212 -0.69201,-4.09741 0,0 0,-2.0396 0.65558,-3.86067 0,0 0.65559,-1.82107 1.89392,-3.20508 0,0 1.23833,-1.38402 3.02298,-2.18529 0,0 1.78465,-0.80127 4.04277,-0.80127 0,0 2.22171,0 3.8971,0.91053 0,0 1.67538,0.91054 2.84087,2.5495 l 2.95013,-2.2217 c 0,0 -0.29137,-0.40064 -1.0198,-1.14728 0,0 -0.72843,-0.74664 -1.93033,-1.49328 0,0 -1.20191,-0.74663 -2.89551,-1.31117 0,0 -1.69359,-0.56453 -3.9153,-0.56453 0,0 -3.0594,0 -5.51784,1.16549 0,0 -2.45845,1.16548 -4.18847,3.0594 0,0 -1.73001,1.89391 -2.64055,4.27951 0,0 -0.91054,2.38561 -0.91054,4.82584 0,0 0,2.98656 0.98338,5.51785 0,0 0.98338,2.53129 2.74982,4.37057 0,0 1.76644,1.83928 4.2431,2.85908 0,0 2.47665,1.0198 5.46321,1.0198 0,0 2.5495,0 5.00794,-0.98338 0,0 2.45845,-0.98338 4.02457,-3.02298 z m 19.37619,-20.86948 c 0,0 -2.95013,0 -5.42679,1.03801 0,0 -2.47665,1.03801 -4.24309,2.85908 0,0 -1.76644,1.82107 -2.76803,4.29773 0,0 -1.00159,2.47666 -1.00159,5.35395 0,0 0,2.87729 1.00159,5.35395 0,0 1.00159,2.47666 2.76803,4.29773 0,0 1.76644,1.82107 4.24309,2.85908 0,0 2.47666,1.03801 5.42679,1.03801 0,0 2.95014,0 5.4268,-1.03801 0,0 2.47665,-1.03801 4.24309,-2.85908 0,0 1.76644,-1.82107 2.76803,-4.29773 0,0 1.00159,-2.47666 1.00159,-5.35395 0,0 0,-2.87729 -1.00159,-5.35395 0,0 -1.00159,-2.47666 -2.76803,-4.29773 0,0 -1.76644,-1.82107 -4.24309,-2.85908 0,0 -2.47666,-1.03801 -5.4268,-1.03801 z m 0,3.27793 c 0,0 2.22171,0 4.00636,0.81948 0,0 1.78465,0.81948 3.0594,2.2035 0,0 1.27475,1.38401 1.96676,3.25971 0,0 0.692,1.87571 0.692,3.98815 0,0 0,2.11244 -0.692,3.98815 0,0 -0.69201,1.8757 -1.96676,3.25971 0,0 -1.27475,1.38402 -3.0594,2.2035 0,0 -1.78465,0.81948 -4.00636,0.81948 0,0 -2.2217,0 -4.00635,-0.81948 0,0 -1.78465,-0.81948 -3.0594,-2.2035 0,0 -1.27475,-1.38401 -1.96676,-3.25971 0,0 -0.69201,-1.87571 -0.69201,-3.98815 0,0 0,-2.11244 0.69201,-3.98815 0,0 0.69201,-1.8757 1.96676,-3.25971 0,0 1.27475,-1.38402 3.0594,-2.2035 0,0 1.78465,-0.81948 4.00635,-0.81948 z m 16.36536,0.65558 14.67784,19.23052 h -14.24078 v 3.27792 h 18.61135 v -3.27792 L 359.6799,333.94744 h 14.82352 v -3.27792 h -19.26694 z m 30.0841,7.72135 -9.76094,14.78709 h 4.47983 l 7.02934,-11.32706 7.24786,11.32706 h 4.26131 l -9.76095,-14.78709 v -10.99927 h -3.49645 z"
       style="fill:#ededed;fill-opacity:0.70588;fill-rule:nonzero;stroke:none;stroke-width:0.607024"
       id="path34" /><path
       transform="matrix(5.5846956,0,0,5.5846956,-1604.6434,-1604.6434)"
       d="m 362.5,350 c 0,-6.9 -5.6,-12.5 -12.5,-12.5 -6.9,0 -12.5,5.6 -12.5,12.5 0,6.9 5.6,12.5 12.5,12.5 6.9,0 12.5,-5.6 12.5,-12.5 z"
       style="fill:#ffffff;fill-opacity:0.40502793;fill-rule:nonzero;stroke:none;filter:url(#filter1362)"
       id="path36" /><path
       d="m 340.56102,278.50206 h 7"
       style="fill:none;stroke:#b4b4b4;stroke-width:1;stroke-linecap:round;stroke-linejoin:miter;stroke-miterlimit:10;stroke-dasharray:none;stroke-opacity:0.70588"
       id="path146" /><path
       d="m 3,697.08 c 0,-1.66 -1.34,-3 -3,-3 -1.66,0 -3,1.34 -3,3 0,1.65 1.34,3 3,3 1.66,0 3,-1.35 3,-3 z"
       style="fill:#ffffff;fill-opacity:1;fill-rule:nonzero;stroke:none"
       id="path54" /><path
       d="m 353,228.23 h 7"
       style="fill:none;stroke:#b4b4b4;stroke-width:1;stroke-linecap:round;stroke-linejoin:miter;stroke-miterlimit:10;stroke-dasharray:none;stroke-opacity:0.70588"
       id="path62" /><path
       d="m 471.77,350 c 0,-67.25 -54.52,-121.77 -121.77,-121.77 -67.25,0 -121.77,54.52 -121.77,121.77 0,67.25 54.52,121.77 121.77,121.77 67.25,0 121.77,-54.52 121.77,-121.77 z"
       style="fill:none;stroke:#c8c8c8;stroke-width:1;stroke-linecap:round;stroke-linejoin:miter;stroke-miterlimit:10;stroke-dasharray:none;stroke-opacity:0.78431"
       id="path64" /><path
       d="m 353,228.23 c 0,-1.66 -1.34,-3 -3,-3 -1.66,0 -3,1.34 -3,3 0,1.66 1.34,3 3,3 1.66,0 3,-1.34 3,-3 z"
       style="fill:#ffffff;fill-opacity:1;fill-rule:nonzero;stroke:none"
       id="path66" /><path
       d="m 353,39.76 h 7"
       style="fill:none;stroke:#b4b4b4;stroke-width:1;stroke-linecap:round;stroke-linejoin:miter;stroke-miterlimit:10;stroke-dasharray:none;stroke-opacity:0.70588"
       id="path74" /><path
       d="M 660.24,350 C 660.24,178.66 521.34,39.76 350,39.76 178.66,39.76 39.76,178.66 39.76,350 c 0,171.34 138.9,310.24 310.24,310.24 171.34,0 310.24,-138.9 310.24,-310.24 z"
       style="fill:none;stroke:#c8c8c8;stroke-width:1;stroke-linecap:round;stroke-linejoin:miter;stroke-miterlimit:10;stroke-dasharray:none;stroke-opacity:0.78431"
       id="path76" /><path
       d="m 353,39.76 c 0,-1.66 -1.34,-3 -3,-3 -1.66,0 -3,1.34 -3,3 0,1.65 1.34,3 3,3 1.66,0 3,-1.35 3,-3 z"
       style="fill:#ffffff;fill-opacity:1;fill-rule:nonzero;stroke:none"
       id="path78" /><path
       d="m 347.45649,241.97 h -7"
       style="fill:none;stroke:#b4b4b4;stroke-width:1;stroke-linecap:round;stroke-linejoin:miter;stroke-miterlimit:10;stroke-dasharray:none;stroke-opacity:0.70588"
       id="path86"
       inkscape:transform-center-x="8.3623378" /><path
       d="m 458.03,350 c 0,-59.66 -48.37,-108.03 -108.03,-108.03 -59.66,0 -108.03,48.37 -108.03,108.03 0,59.66 48.37,108.03 108.03,108.03 59.66,0 108.03,-48.37 108.03,-108.03 z"
       style="fill:none;stroke:#c8c8c8;stroke-width:1;stroke-linecap:round;stroke-linejoin:miter;stroke-miterlimit:10;stroke-dasharray:none;stroke-opacity:0.78431"
       id="path88" /><path
       d="m 353,241.97 c 0,-1.65 -1.34,-3 -3,-3 -1.66,0 -3,1.35 -3,3 0,1.66 1.34,3 3,3 1.66,0 3,-1.34 3,-3 z"
       style="fill:#ffffff;fill-opacity:1;fill-rule:nonzero;stroke:none"
       id="path90" /><path
       d="m 353,279.18 h 7"
       style="fill:none;stroke:#b4b4b4;stroke-width:1;stroke-linecap:round;stroke-linejoin:miter;stroke-miterlimit:10;stroke-dasharray:none;stroke-opacity:0.70588"
       id="path98" /><path
       d="m 420.82,350 c 0,-39.11 -31.71,-70.82 -70.82,-70.82 -39.11,0 -70.82,31.71 -70.82,70.82 0,39.11 31.71,70.82 70.82,70.82 39.11,0 70.82,-31.71 70.82,-70.82 z"
       style="fill:none;stroke:#c8c8c8;stroke-width:1;stroke-linecap:round;stroke-linejoin:miter;stroke-miterlimit:10;stroke-dasharray:none;stroke-opacity:0.78431"
       id="path100" /><path
       d="m 353,279.18 c 0,-1.66 -1.34,-3 -3,-3 -1.66,0 -3,1.34 -3,3 0,1.66 1.34,3 3,3 1.66,0 3,-1.34 3,-3 z"
       style="fill:#ffffff;fill-opacity:1;fill-rule:nonzero;stroke:none"
       id="path102" /><path
       d="m 340.25,219.78 h 7"
       style="fill:none;stroke:#b4b4b4;stroke-width:1;stroke-linecap:round;stroke-linejoin:miter;stroke-miterlimit:10;stroke-dasharray:none;stroke-opacity:0.70588"
       id="path110" /><path
       d="m 480.22,350 c 0,-71.92 -58.3,-130.22 -130.22,-130.22 -71.92,0 -130.22,58.3 -130.22,130.22 0,71.92 58.3,130.22 130.22,130.22 71.92,0 130.22,-58.3 130.22,-130.22 z"
       style="fill:none;stroke:#c8c8c8;stroke-width:1;stroke-linecap:round;stroke-linejoin:miter;stroke-miterlimit:10;stroke-dasharray:none;stroke-opacity:0.78431"
       id="path112" /><path
       d="m 353,219.78 c 0,-1.66 -1.34,-3 -3,-3 -1.66,0 -3,1.34 -3,3 0,1.65 1.34,3 3,3 1.66,0 3,-1.35 3,-3 z"
       style="fill:#ffffff;fill-opacity:1;fill-rule:nonzero;stroke:none"
       id="path114" /><path
       d="m 353,242.75 h 7"
       style="fill:none;stroke:#b4b4b4;stroke-width:1;stroke-linecap:round;stroke-linejoin:miter;stroke-miterlimit:10;stroke-dasharray:none;stroke-opacity:0.70588"
       id="path122"
       inkscape:label="path122" /><path
       d="m 457.25,350 c 0,-59.23 -48.02,-107.25 -107.25,-107.25 -59.23,0 -107.25,48.02 -107.25,107.25 0,59.23 48.02,107.25 107.25,107.25 59.23,0 107.25,-48.02 107.25,-107.25 z"
       style="fill:none;stroke:#c8c8c8;stroke-width:1;stroke-linecap:round;stroke-linejoin:miter;stroke-miterlimit:10;stroke-dasharray:none;stroke-opacity:0.78431"
       id="path124" /><path
       d="m 353,242.75 c 0,-1.66 -1.34,-3 -3,-3 -1.66,0 -3,1.34 -3,3 0,1.65 1.34,3 3,3 1.66,0 3,-1.35 3,-3 z"
       style="fill:#ffffff;fill-opacity:1;fill-rule:nonzero;stroke:none"
       id="path126" /><path
       d="m 353,290.63 h 7"
       style="fill:none;stroke:#b4b4b4;stroke-width:1;stroke-linecap:round;stroke-linejoin:miter;stroke-miterlimit:10;stroke-dasharray:none;stroke-opacity:0.70588"
       id="path134" /><path
       d="m 409.37,350 c 0,-32.79 -26.58,-59.37 -59.37,-59.37 -32.79,0 -59.37,26.58 -59.37,59.37 0,32.79 26.58,59.37 59.37,59.37 32.79,0 59.37,-26.58 59.37,-59.37 z"
       style="fill:none;stroke:#c8c8c8;stroke-width:1;stroke-linecap:round;stroke-linejoin:miter;stroke-miterlimit:10;stroke-dasharray:none;stroke-opacity:0.78431"
       id="path136" /><path
       d="m 353,290.63 c 0,-1.66 -1.34,-3 -3,-3 -1.66,0 -3,1.34 -3,3 0,1.65 1.34,3 3,3 1.66,0 3,-1.35 3,-3 z"
       style="fill:#ffffff;fill-opacity:1;fill-rule:nonzero;stroke:none"
       id="path138" /><path
       d="m 419.93,350 c 0,-38.62 -31.31,-69.93 -69.93,-69.93 -38.62,0 -69.93,31.31 -69.93,69.93 0,38.62 31.31,69.93 69.93,69.93 38.62,0 69.93,-31.31 69.93,-69.93 z"
       style="fill:none;stroke:#c8c8c8;stroke-width:1;stroke-linecap:round;stroke-linejoin:miter;stroke-miterlimit:10;stroke-dasharray:none;stroke-opacity:0.78431"
       id="path148" /><path
       d="m 353,280.07 c 0,-1.66 -1.34,-3 -3,-3 -1.66,0 -3,1.34 -3,3 0,1.65 1.34,3 3,3 1.66,0 3,-1.35 3,-3 z"
       style="fill:#ffffff;fill-opacity:1;fill-rule:nonzero;stroke:none"
       id="path150" /><g
       id="g182"><text
         id="text60"
         style="font-variant:normal;font-weight:500;font-size:15px;font-family:Avenir;-inkscape-font-specification:Avenir-Medium;writing-mode:lr-tb;fill:#ffffff;fill-opacity:1;fill-rule:nonzero;stroke:none"
         transform="matrix(1,0,0,-1,361,225)"
         inkscape:label="decorate"><tspan
           id="tspan58"
           sodipodi:role="line"
           y="0"
           x="0 8.3400002 11.94 19.17 27.51 31.110001 38.610001 42.779999 51.945 60.285 67.514999 76.425003 81.974998 89.760002 95.309998">nicely decorate</tspan></text><text
         id="text72"
         style="font-variant:normal;font-weight:500;font-size:15px;font-family:Avenir;-inkscape-font-specification:Avenir-Medium;writing-mode:lr-tb;fill:#ffffff;fill-opacity:1;fill-rule:nonzero;stroke:none"
         transform="matrix(1,0,0,-1,361,37)"
         inkscape:label="stylsih"><tspan
           id="tspan70"
           sodipodi:role="line"
           y="0"
           x="0 6.6599998 12.21 19.709999 23.309999 26.91 33.57">stylish</tspan></text><text
         id="text84"
         style="font-variant:normal;font-weight:500;font-size:15px;font-family:Avenir;-inkscape-font-specification:Avenir-Medium;writing-mode:lr-tb;fill:#ffffff;fill-opacity:1;fill-rule:nonzero;stroke:none"
         transform="scale(1,-1)"
         x="250"
         y="-239"
         inkscape:label="furnish"><tspan
           id="tspan82"
           sodipodi:role="line"
           y="-239"
           x="250 258.34 261.94 269.17001 277.51001 281.10999 288.60999 292.78 297.77499 306.11499 311.66501 320.005 323.60501 330.26498">nicely furnish</tspan></text><text
         id="text96"
         style="font-variant:normal;font-weight:500;font-size:15px;font-family:Avenir;-inkscape-font-specification:Avenir-Medium;writing-mode:lr-tb;fill:#ffffff;fill-opacity:1;fill-rule:nonzero;stroke:none"
         transform="scale(1,-1)"
         inkscape:label="roomy"
         x="295"
         y="-276"><tspan
           id="tspan94"
           sodipodi:role="line"
           y="-276"
           x="295 300.51703 309.39407 318.27112 331.01816">roomy</tspan></text><text
         id="text108"
         style="font-variant:normal;font-weight:500;font-size:15px;font-family:Avenir;-inkscape-font-specification:Avenir-Medium;writing-mode:lr-tb;fill:#ffffff;fill-opacity:1;fill-rule:nonzero;stroke:none"
         transform="scale(1,-1)"
         inkscape:label="neat"
         x="308.5"
         y="-217"><tspan
           id="tspan106"
           sodipodi:role="line"
           y="-217"
           x="308.5 316.84 325.17999 332.965">neat</tspan></text><text
         id="text120"
         style="font-variant:normal;font-weight:500;font-size:15px;font-family:Avenir;-inkscape-font-specification:Avenir-Medium;writing-mode:lr-tb;fill:#ffffff;fill-opacity:1;fill-rule:nonzero;stroke:none"
         transform="matrix(1,0,0,-1,361,240)"
         inkscape:label="spacy"><tspan
           id="tspan118"
           sodipodi:role="line"
           y="0"
           x="0 6.6599998 15.825 23.610001 30.84">spacy</tspan></text><text
         id="text132"
         style="font-variant:normal;font-weight:500;font-size:15px;font-family:Avenir;-inkscape-font-specification:Avenir-Medium;writing-mode:lr-tb;fill:#ffffff;fill-opacity:1;fill-rule:nonzero;stroke:none"
         transform="matrix(1,0,0,-1,361,288)"
         inkscape:label="spacious"><tspan
           id="tspan130"
           sodipodi:role="line"
           y="0"
           x="0 6.6599998 15.825 23.610001 30.84 34.439999 43.349998 51.689999">spacious</tspan></text><text
         id="text144"
         style="font-variant:normal;font-weight:500;font-size:15px;font-family:Avenir;-inkscape-font-specification:Avenir-Medium;writing-mode:lr-tb;fill:#ffffff;fill-opacity:1;fill-rule:nonzero;stroke:none"
         transform="matrix(1,0,0,-1,361,277)"
         inkscape:label="specious"><tspan
           id="tspan142"
           sodipodi:role="line"
           y="0"
           x="0 6.6599998 15.825 24.165001 31.395 34.994999 43.904999 52.244999">specious</tspan></text><text
         id="text156"
         style="font-variant:normal;font-weight:500;font-size:15px;font-family:Avenir;-inkscape-font-specification:Avenir-Medium;writing-mode:lr-tb;fill:#ffffff;fill-opacity:1;fill-rule:nonzero;stroke:none"
         transform="matrix(1,0,0,-1,361,210)"
         inkscape:label="tidy"><tspan
           id="tspan154"
           sodipodi:role="line"
           y="0"
           x="0 5.5500002 9.1499996 18.315001">tidy</tspan></text></g><path
       d="m 353,213.11 h 7"
       style="fill:none;stroke:#b4b4b4;stroke-width:1;stroke-linecap:round;stroke-linejoin:miter;stroke-miterlimit:10;stroke-dasharray:none;stroke-opacity:0.70588"
       id="path158" /><path
       d="m 486.89,350 c 0,-75.6 -61.29,-136.89 -136.89,-136.89 -75.6,0 -136.89,61.29 -136.89,136.89 0,75.6 61.29,136.89 136.89,136.89 75.6,0 136.89,-61.29 136.89,-136.89 z"
       style="fill:none;stroke:#c8c8c8;stroke-width:1;stroke-linecap:round;stroke-linejoin:miter;stroke-miterlimit:10;stroke-dasharray:none;stroke-opacity:0.78431"
       id="path160" /><path
       d="m 353,213.11 c 0,-1.65 -1.34,-3 -3,-3 -1.66,0 -3,1.35 -3,3 0,1.66 1.34,3 3,3 1.66,0 3,-1.34 3,-3 z"
       style="fill:#ffffff;fill-opacity:1;fill-rule:nonzero;stroke:none"
       id="path162" /></g></svg>
