<?xml version="1.0" encoding="UTF-8" standalone="no"?>
<svg
   xmlns:dc="http://purl.org/dc/elements/1.1/"
   xmlns:cc="http://creativecommons.org/ns#"
   xmlns:rdf="http://www.w3.org/1999/02/22-rdf-syntax-ns#"
   xmlns:svg="http://www.w3.org/2000/svg"
   xmlns="http://www.w3.org/2000/svg"
   xmlns:sodipodi="http://sodipodi.sourceforge.net/DTD/sodipodi-0.dtd"
   xmlns:inkscape="http://www.inkscape.org/namespaces/inkscape"
   inkscape:version="1.0 (4035a4f, 2020-05-01)"
   sodipodi:docname="OrbitHospitality.svg"
   viewBox="0 0 933.33331 933.33331"
   height="933.33331"
   width="933.33331"
   xml:space="preserve"
   id="svg10"
   version="1.1"><metadata
     id="metadata16"><rdf:RDF><cc:Work
         rdf:about=""><dc:format>image/svg+xml</dc:format><dc:type
           rdf:resource="http://purl.org/dc/dcmitype/StillImage" /></cc:Work></rdf:RDF></metadata><defs
     id="defs14"><clipPath
       id="clipPath28"
       clipPathUnits="userSpaceOnUse"><path
         id="path26"
         d="M 0,700 V 0 h 700 v 700 z" /></clipPath><clipPath
       id="clipPath50"
       clipPathUnits="userSpaceOnUse"><path
         id="path48"
         d="M 0,700 V 0 h 700 v 700 z" /></clipPath><filter
       height="2.0444444"
       y="-0.52222222"
       width="2.0444444"
       x="-0.52222222"
       id="filter414"
       style="color-interpolation-filters:sRGB"
       inkscape:collect="always"><feGaussianBlur
         id="feGaussianBlur416"
         stdDeviation="5.4398148"
         inkscape:collect="always" /></filter></defs><sodipodi:namedview
     inkscape:current-layer="g18"
     inkscape:window-maximized="0"
     inkscape:window-y="23"
     inkscape:window-x="0"
     inkscape:cy="518.24089"
     inkscape:cx="396.83235"
     inkscape:zoom="1.657166"
     inkscape:snap-bbox-edge-midpoints="true"
     inkscape:snap-bbox-midpoints="true"
     inkscape:snap-bbox="true"
     showgrid="false"
     id="namedview12"
     inkscape:window-height="755"
     inkscape:window-width="1313"
     inkscape:pageshadow="2"
     inkscape:pageopacity="0"
     guidetolerance="10"
     gridtolerance="10"
     objecttolerance="10"
     borderopacity="1"
     bordercolor="#666666"
     pagecolor="#ffffff" /><g
     transform="matrix(1.3333333,0,0,-1.3333333,0,933.33333)"
     inkscape:label="OrbitHospitality"
     inkscape:groupmode="layer"
     id="g18"><path
       d="M 0,700 H 700 V 0 H 0 Z"
       style="fill:#012d4a;fill-opacity:1;fill-rule:nonzero;stroke:none"
       id="path32" /><path
       transform="matrix(4.289947,0,0,4.289947,-1151.4814,-1151.4814)"
       d="m 362.5,350 c 0,-6.9 -5.6,-12.5 -12.5,-12.5 -6.9,0 -12.5,5.6 -12.5,12.5 0,6.9 5.6,12.5 12.5,12.5 6.9,0 12.5,-5.6 12.5,-12.5 z"
       style="fill:#f5f5f5;fill-opacity:0.31373;fill-rule:nonzero;stroke:none;filter:url(#filter414)"
       id="path34" /><path
       d="m 311.55404,354.44818 h 1.20628 v -3.69423 h 4.6115 v 3.69423 h 1.20628 v -8.8963 h -1.20628 v 4.07119 h -4.6115 v -4.07119 h -1.20628 z m 13.29839,-9.12248 c 0,0 -1.0178,0 -1.87225,0.35811 0,0 -0.85445,0.35812 -1.46387,0.98639 0,0 -0.60942,0.62827 -0.95497,1.48271 0,0 -0.34555,0.85445 -0.34555,1.84712 0,0 0,0.99267 0.34555,1.84712 0,0 0.34555,0.85444 0.95497,1.48271 0,0 0.60942,0.62827 1.46387,0.98639 0,0 0.85445,0.35811 1.87225,0.35811 0,0 1.0178,0 1.87224,-0.35811 0,0 0.85445,-0.35812 1.46387,-0.98639 0,0 0.60943,-0.62827 0.95498,-1.48271 0,0 0.34554,-0.85445 0.34554,-1.84712 0,0 0,-0.99267 -0.34554,-1.84712 0,0 -0.34555,-0.85444 -0.95498,-1.48271 0,0 -0.60942,-0.62827 -1.46387,-0.98639 0,0 -0.85444,-0.35811 -1.87224,-0.35811 z m 0,1.13088 c 0,0 0.76649,0 1.38219,0.28273 0,0 0.61571,0.28272 1.0555,0.7602 0,0 0.43979,0.47749 0.67853,1.12461 0,0 0.23874,0.64712 0.23874,1.37591 0,0 0,0.72879 -0.23874,1.37591 0,0 -0.23874,0.64711 -0.67853,1.12461 0,0 -0.43979,0.47748 -1.0555,0.7602 0,0 -0.6157,0.28273 -1.38219,0.28273 0,0 -0.76649,0 -1.3822,-0.28273 0,0 -0.6157,-0.28272 -1.05549,-0.7602 0,0 -0.43979,-0.47749 -0.67853,-1.12461 0,0 -0.23875,-0.64712 -0.23875,-1.37591 0,0 0,-0.72879 0.23875,-1.37591 0,0 0.23874,-0.64712 0.67853,-1.12461 0,0 0.43979,-0.47748 1.05549,-0.7602 0,0 0.61571,-0.28273 1.3822,-0.28273 z m 6.65129,0.95498 c 0,0 0.3267,-0.49007 0.8356,-0.72252 0,0 0.5089,-0.23246 1.04921,-0.23246 0,0 0.30157,0 0.6157,0.0942 0,0 0.31414,0.0942 0.57173,0.28272 0,0 0.25759,0.18848 0.42094,0.46492 0,0 0.16335,0.27644 0.16335,0.64083 0,0 0,0.51518 -0.3267,0.78534 0,0 -0.3267,0.27016 -0.81047,0.45236 0,0 -0.48377,0.18219 -1.05549,0.35183 0,0 -0.57173,0.16963 -1.0555,0.4712 0,0 -0.48376,0.30157 -0.81046,0.81047 0,0 -0.32671,0.5089 -0.32671,1.37591 0,0 0,0.38953 0.16964,0.82932 0,0 0.16963,0.43979 0.53403,0.80418 0,0 0.36439,0.36439 0.93612,0.60942 0,0 0.57173,0.24502 1.37591,0.24502 0,0 0.7288,0 1.39476,-0.20103 0,0 0.66597,-0.20105 1.16859,-0.81676 l -0.98011,-0.89214 c 0,0 -0.22617,0.35183 -0.64083,0.56544 0,0 -0.41466,0.21362 -0.94241,0.21362 0,0 -0.50261,0 -0.8356,-0.13194 0,0 -0.33298,-0.13194 -0.53403,-0.33927 0,0 -0.20104,-0.20733 -0.28272,-0.44607 0,0 -0.0817,-0.23874 -0.0817,-0.43979 0,0 0,-0.56544 0.3267,-0.86701 0,0 0.3267,-0.30157 0.81047,-0.49005 0,0 0.48376,-0.18848 1.05549,-0.33927 0,0 0.57173,-0.15078 1.05549,-0.42094 0,0 0.48377,-0.27016 0.81047,-0.72879 0,0 0.3267,-0.45864 0.3267,-1.26283 0,0 0,-0.64083 -0.24502,-1.15602 0,0 -0.24503,-0.51518 -0.65969,-0.86701 0,0 -0.41465,-0.35183 -0.9801,-0.54031 0,0 -0.56544,-0.18848 -1.20628,-0.18848 0,0 -0.85444,0 -1.62093,0.30157 0,0 -0.76649,0.30157 -1.21885,0.92984 z m 6.6471,7.03662 h 3.12879 c 0,0 0.85444,0 1.40732,-0.23246 0,0 0.55288,-0.23246 0.8733,-0.59057 0,0 0.32042,-0.35811 0.44607,-0.80419 0,0 0.12565,-0.44608 0.12565,-0.86073 0,0 0,-0.41465 -0.12565,-0.86073 0,0 -0.12565,-0.44607 -0.44607,-0.80418 0,0 -0.32042,-0.35812 -0.8733,-0.59058 0,0 -0.55288,-0.23246 -1.40732,-0.23246 h -1.92251 v -3.9204 h -1.20628 z m 1.20628,-3.9204 h 1.58324 c 0,0 0.35183,0 0.69738,0.0565 0,0 0.34555,0.0565 0.61571,0.20733 0,0 0.27015,0.15079 0.4335,0.43351 0,0 0.16335,0.28272 0.16335,0.73507 0,0 0,0.45236 -0.16335,0.73508 0,0 -0.16335,0.28272 -0.4335,0.43351 0,0 -0.27016,0.15078 -0.61571,0.20733 0,0 -0.34555,0.0565 -0.69738,0.0565 h -1.58324 z m 6.33296,3.9204 h 1.20628 v -8.8963 h -1.20628 z m 5.41988,-1.13088 h -2.86491 v 1.13088 h 6.93611 v -1.13088 h -2.86492 v -7.76542 h -1.20628 z m 7.4848,1.13088 h 1.09319 l 3.80732,-8.8963 h -1.40733 l -0.89214,2.19894 h -4.23454 l -0.87958,-2.19894 h -1.40733 z m 2.16125,-5.64186 -1.65863,4.08375 h -0.0251 l -1.68377,-4.08375 z m 3.84501,5.64186 h 1.20628 v -7.76542 h 4.08376 v -1.13088 H 364.601 Z m 6.49213,0 h 1.20628 v -8.8963 h -1.20628 z m 5.41988,-1.13088 h -2.86491 v 1.13088 h 6.9361 v -1.13088 h -2.86491 v -7.76542 h -1.20628 z m 7.35914,-3.97067 -3.36753,5.10155 h 1.54555 l 2.42512,-3.90784 2.50052,3.90784 h 1.47015 l -3.36753,-5.10155 v -3.79475 h -1.20628 z"
       style="fill:#ededed;fill-opacity:0.70588;fill-rule:nonzero;stroke:none;stroke-width:0.209423"
       id="path36" /><path
       d="m 362.02,301.34 h 1.35 v -7.32 l 3.06,3.08 h 1.87 l -3.31,-3.23 3.6,-3.87 h -1.92 l -3.3,3.69 V 290 h -1.35 z m 8.11,-4.23 h 1.35 V 290 h -1.35 z m -0.32,2.55 c 0,0 0,0.41 0.29,0.7 0,0 0.29,0.29 0.7,0.29 0,0 0.4,0 0.7,-0.29 0,0 0.29,-0.29 0.29,-0.7 0,0 0,-0.4 -0.29,-0.7 0,0 -0.3,-0.29 -0.7,-0.29 0,0 -0.41,0 -0.7,0.29 0,0 -0.29,0.3 -0.29,0.7 z m 4.21,-2.55 h 1.35 v -1.09 h 0.03 c 0,0 0.25,0.56 0.89,0.92 0,0 0.63,0.35 1.45,0.35 0,0 0.51,0 0.98,-0.16 0,0 0.48,-0.15 0.83,-0.49 0,0 0.35,-0.32 0.56,-0.84 0,0 0.21,-0.52 0.21,-1.22 V 290 h -1.35 v 4.2 c 0,0 0,0.5 -0.14,0.85 0,0 -0.13,0.35 -0.35,0.57 0,0 -0.23,0.21 -0.52,0.31 0,0 -0.29,0.1 -0.61,0.1 0,0 -0.42,0 -0.78,-0.14 0,0 -0.36,-0.13 -0.63,-0.42 0,0 -0.27,-0.3 -0.42,-0.74 0,0 -0.15,-0.46 -0.15,-1.07 V 290 h -1.35 z M 389.14,290 h -1.35 v 1.02 h -0.02 c 0,0 -0.39,-0.57 -1.08,-0.88 0,0 -0.68,-0.32 -1.4,-0.32 0,0 -0.83,0 -1.49,0.29 0,0 -0.67,0.28 -1.14,0.79 0,0 -0.48,0.51 -0.73,1.18 0,0 -0.26,0.68 -0.26,1.47 0,0 0,0.8 0.26,1.48 0,0 0.25,0.68 0.73,1.19 0,0 0.47,0.5 1.14,0.79 0,0 0.66,0.28 1.49,0.28 0,0 0.76,0 1.44,-0.32 0,0 0.67,-0.33 1.04,-0.88 h 0.02 v 5.25 h 1.35 z m -3.68,1.08 c 0,0 0.53,0 0.97,0.19 0,0 0.43,0.19 0.74,0.51 0,0 0.29,0.32 0.46,0.78 0,0 0.16,0.46 0.16,0.99 0,0 0,0.55 -0.16,1 0,0 -0.17,0.46 -0.46,0.78 0,0 -0.31,0.32 -0.74,0.51 0,0 -0.44,0.19 -0.97,0.19 0,0 -0.54,0 -0.98,-0.19 0,0 -0.44,-0.19 -0.74,-0.51 0,0 -0.29,-0.32 -0.46,-0.78 0,0 -0.17,-0.45 -0.17,-1 0,0 0,-0.53 0.17,-0.99 0,0 0.17,-0.46 0.46,-0.78 0,0 0.3,-0.32 0.74,-0.51 0,0 0.44,-0.19 0.98,-0.19 z m 5.56,6.03 h 1.35 v -1.09 h 0.03 c 0,0 0.25,0.56 0.89,0.92 0,0 0.63,0.35 1.45,0.35 0,0 0.51,0 0.98,-0.16 0,0 0.48,-0.15 0.83,-0.49 0,0 0.35,-0.32 0.56,-0.84 0,0 0.21,-0.52 0.21,-1.22 V 290 h -1.35 v 4.2 c 0,0 0,0.5 -0.14,0.85 0,0 -0.13,0.35 -0.35,0.57 0,0 -0.23,0.21 -0.52,0.31 0,0 -0.29,0.1 -0.61,0.1 0,0 -0.42,0 -0.78,-0.14 0,0 -0.36,-0.13 -0.63,-0.42 0,0 -0.27,-0.3 -0.42,-0.74 0,0 -0.15,-0.46 -0.15,-1.07 V 290 h -1.35 z m 9.02,-4.05 c 0,0 0,-0.46 0.2,-0.85 0,0 0.21,-0.38 0.53,-0.65 0,0 0.34,-0.27 0.77,-0.42 0,0 0.44,-0.15 0.9,-0.15 0,0 0.63,0 1.1,0.29 0,0 0.46,0.3 0.85,0.77 l 1.02,-0.78 c 0,0 -1.12,-1.45 -3.15,-1.45 0,0 -0.84,0 -1.52,0.29 0,0 -0.69,0.28 -1.16,0.78 0,0 -0.47,0.5 -0.72,1.19 0,0 -0.26,0.68 -0.26,1.47 0,0 0,0.8 0.28,1.48 0,0 0.27,0.68 0.76,1.19 0,0 0.49,0.5 1.16,0.79 0,0 0.68,0.28 1.47,0.28 0,0 0.95,0 1.6,-0.33 0,0 0.65,-0.33 1.08,-0.86 0,0 0.41,-0.53 0.6,-1.2 0,0 0.19,-0.67 0.19,-1.36 v -0.48 z m 4.26,1.08 c 0,0 -0.01,0.45 -0.14,0.82 0,0 -0.13,0.38 -0.39,0.66 0,0 -0.25,0.27 -0.63,0.43 0,0 -0.38,0.16 -0.9,0.16 0,0 -0.49,0 -0.9,-0.19 0,0 -0.42,-0.19 -0.7,-0.48 0,0 -0.28,-0.31 -0.44,-0.67 0,0 -0.16,-0.37 -0.16,-0.73 z m 6.5,1.19 c 0,0 -0.24,0.3 -0.59,0.5 0,0 -0.35,0.2 -0.86,0.2 0,0 -0.49,0 -0.84,-0.2 0,0 -0.35,-0.2 -0.35,-0.6 0,0 0,-0.31 0.2,-0.5 0,0 0.21,-0.2 0.48,-0.32 0,0 0.28,-0.12 0.59,-0.18 0,0 0.32,-0.06 0.55,-0.1 0,0 0.43,-0.11 0.81,-0.26 0,0 0.38,-0.15 0.66,-0.39 0,0 0.28,-0.24 0.44,-0.59 0,0 0.15,-0.34 0.15,-0.84 0,0 0,-0.59 -0.25,-1.02 0,0 -0.25,-0.43 -0.66,-0.7 0,0 -0.4,-0.27 -0.92,-0.39 0,0 -0.52,-0.12 -1.04,-0.12 0,0 -0.89,0 -1.56,0.27 0,0 -0.66,0.27 -1.19,0.99 l 1.02,0.84 c 0,0 0.33,-0.33 0.73,-0.59 0,0 0.41,-0.25 1,-0.25 0,0 0.25,0 0.51,0.05 0,0 0.27,0.05 0.47,0.17 0,0 0.2,0.11 0.33,0.28 0,0 0.13,0.18 0.13,0.4 0,0 0,0.3 -0.19,0.5 0,0 -0.19,0.19 -0.45,0.3 0,0 -0.26,0.11 -0.56,0.18 0,0 -0.29,0.07 -0.52,0.12 0,0 -0.43,0.1 -0.82,0.24 0,0 -0.39,0.13 -0.69,0.35 0,0 -0.3,0.23 -0.48,0.57 0,0 -0.18,0.35 -0.18,0.86 0,0 0,0.55 0.23,0.97 0,0 0.23,0.41 0.62,0.68 0,0 0.38,0.27 0.87,0.4 0,0 0.48,0.14 0.98,0.14 0,0 0.72,0 1.38,-0.27 0,0 0.66,-0.27 1.05,-0.9 z m 7,0 c 0,0 -0.24,0.3 -0.59,0.5 0,0 -0.35,0.2 -0.86,0.2 0,0 -0.49,0 -0.84,-0.2 0,0 -0.35,-0.2 -0.35,-0.6 0,0 0,-0.31 0.2,-0.5 0,0 0.21,-0.2 0.48,-0.32 0,0 0.28,-0.12 0.59,-0.18 0,0 0.32,-0.06 0.55,-0.1 0,0 0.43,-0.11 0.81,-0.26 0,0 0.38,-0.15 0.66,-0.39 0,0 0.28,-0.24 0.44,-0.59 0,0 0.15,-0.34 0.15,-0.84 0,0 0,-0.59 -0.25,-1.02 0,0 -0.25,-0.43 -0.66,-0.7 0,0 -0.4,-0.27 -0.92,-0.39 0,0 -0.52,-0.12 -1.04,-0.12 0,0 -0.89,0 -1.56,0.27 0,0 -0.66,0.27 -1.19,0.99 l 1.02,0.84 c 0,0 0.33,-0.33 0.73,-0.59 0,0 0.41,-0.25 1,-0.25 0,0 0.25,0 0.51,0.05 0,0 0.27,0.05 0.47,0.17 0,0 0.2,0.11 0.33,0.28 0,0 0.13,0.18 0.13,0.4 0,0 0,0.3 -0.19,0.5 0,0 -0.19,0.19 -0.45,0.3 0,0 -0.26,0.11 -0.56,0.18 0,0 -0.29,0.07 -0.52,0.12 0,0 -0.43,0.1 -0.82,0.24 0,0 -0.39,0.13 -0.69,0.35 0,0 -0.3,0.23 -0.48,0.57 0,0 -0.18,0.35 -0.18,0.86 0,0 0,0.55 0.23,0.97 0,0 0.23,0.41 0.62,0.68 0,0 0.38,0.27 0.87,0.4 0,0 0.48,0.14 0.98,0.14 0,0 0.72,0 1.38,-0.27 0,0 0.66,-0.27 1.05,-0.9 z"
       style="fill:#ffffff;fill-opacity:1;fill-rule:nonzero;stroke:none"
       id="path38" /><path
       d="m 353,292.54 h 7"
       style="fill:none;stroke:#b4b4b4;stroke-width:1;stroke-linecap:round;stroke-linejoin:miter;stroke-miterlimit:10;stroke-dasharray:none;stroke-opacity:0.70588"
       id="path40" /><path
       d="m 407.46,350 c 0,-31.73 -25.73,-57.46 -57.46,-57.46 -31.73,0 -57.46,25.73 -57.46,57.46 0,31.73 25.73,57.46 57.46,57.46 31.73,0 57.46,-25.73 57.46,-57.46 z"
       style="fill:none;stroke:#c8c8c8;stroke-width:1;stroke-linecap:round;stroke-linejoin:miter;stroke-miterlimit:10;stroke-dasharray:none;stroke-opacity:0.78431"
       id="path42" /><path
       d="m 353,308.92 h 7"
       style="fill:none;stroke:#b4b4b4;stroke-width:1;stroke-linecap:round;stroke-linejoin:miter;stroke-miterlimit:10;stroke-dasharray:none;stroke-opacity:0.70588"
       id="path60" /><path
       d="m 391.08,350 c 0,-22.69 -18.39,-41.08 -41.08,-41.08 -22.69,0 -41.08,18.39 -41.08,41.08 0,22.69 18.39,41.08 41.08,41.08 22.69,0 41.08,-18.39 41.08,-41.08 z"
       style="fill:none;stroke:#c8c8c8;stroke-width:1;stroke-linecap:round;stroke-linejoin:miter;stroke-miterlimit:10;stroke-dasharray:none;stroke-opacity:0.78431"
       id="path62" /><path
       d="m 353,308.92 c 0,-1.65 -1.34,-3 -3,-3 -1.66,0 -3,1.35 -3,3 0,1.66 1.34,3 3,3 1.66,0 3,-1.34 3,-3 z"
       style="fill:#ffffff;fill-opacity:1;fill-rule:nonzero;stroke:none"
       id="path64" /><path
       d="m 353,307.54 h 7"
       style="fill:none;stroke:#b4b4b4;stroke-width:1;stroke-linecap:round;stroke-linejoin:miter;stroke-miterlimit:10;stroke-dasharray:none;stroke-opacity:0.70588"
       id="path70" /><path
       d="m 392.46,350 c 0,-23.45 -19.01,-42.46 -42.46,-42.46 -23.45,0 -42.46,19.01 -42.46,42.46 0,23.45 19.01,42.46 42.46,42.46 23.45,0 42.46,-19.01 42.46,-42.46 z"
       style="fill:none;stroke:#c8c8c8;stroke-width:1;stroke-linecap:round;stroke-linejoin:miter;stroke-miterlimit:10;stroke-dasharray:none;stroke-opacity:0.78431"
       id="path72" /><path
       d="m 353,307.54 c 0,-1.66 -1.34,-3 -3,-3 -1.66,0 -3,1.34 -3,3 0,1.66 1.34,3 3,3 1.66,0 3,-1.34 3,-3 z"
       style="fill:#ffffff;fill-opacity:1;fill-rule:nonzero;stroke:none"
       id="path74" /><path
       d="m 353,244.85 h 7"
       style="fill:none;stroke:#b4b4b4;stroke-width:1;stroke-linecap:round;stroke-linejoin:miter;stroke-miterlimit:10;stroke-dasharray:none;stroke-opacity:0.70588"
       id="path80" /><path
       d="m 455.15,350 c 0,-58.07 -47.08,-105.15 -105.15,-105.15 -58.07,0 -105.15,47.08 -105.15,105.15 0,58.07 47.08,105.15 105.15,105.15 58.07,0 105.15,-47.08 105.15,-105.15 z"
       style="fill:none;stroke:#c8c8c8;stroke-width:1;stroke-linecap:round;stroke-linejoin:miter;stroke-miterlimit:10;stroke-dasharray:none;stroke-opacity:0.78431"
       id="path82" /><path
       d="m 353,244.85 c 0,-1.65 -1.34,-3 -3,-3 -1.66,0 -3,1.35 -3,3 0,1.66 1.34,3 3,3 1.66,0 3,-1.34 3,-3 z"
       style="fill:#ffffff;fill-opacity:1;fill-rule:nonzero;stroke:none"
       id="path84" /><path
       d="m 353,277.76 h 7"
       style="fill:none;stroke:#b4b4b4;stroke-width:1;stroke-linecap:round;stroke-linejoin:miter;stroke-miterlimit:10;stroke-dasharray:none;stroke-opacity:0.70588"
       id="path90" /><path
       d="m 422.24,350 c 0,-39.9 -32.34,-72.24 -72.24,-72.24 -39.9,0 -72.24,32.34 -72.24,72.24 0,39.9 32.34,72.24 72.24,72.24 39.9,0 72.24,-32.34 72.24,-72.24 z"
       style="fill:none;stroke:#c8c8c8;stroke-width:1;stroke-linecap:round;stroke-linejoin:miter;stroke-miterlimit:10;stroke-dasharray:none;stroke-opacity:0.78431"
       id="path92" /><path
       d="m 353,277.76 c 0,-1.66 -1.34,-3 -3,-3 -1.66,0 -3,1.34 -3,3 0,1.65 1.34,3 3,3 1.66,0 3,-1.35 3,-3 z"
       style="fill:#ffffff;fill-opacity:1;fill-rule:nonzero;stroke:none"
       id="path94" /><path
       d="m 353,303.68 h 7"
       style="fill:none;stroke:#b4b4b4;stroke-width:1;stroke-linecap:round;stroke-linejoin:miter;stroke-miterlimit:10;stroke-dasharray:none;stroke-opacity:0.70588"
       id="path100" /><path
       d="m 396.32,350 c 0,-25.58 -20.74,-46.32 -46.32,-46.32 -25.58,0 -46.32,20.74 -46.32,46.32 0,25.58 20.74,46.32 46.32,46.32 25.58,0 46.32,-20.74 46.32,-46.32 z"
       style="fill:none;stroke:#c8c8c8;stroke-width:1;stroke-linecap:round;stroke-linejoin:miter;stroke-miterlimit:10;stroke-dasharray:none;stroke-opacity:0.78431"
       id="path102" /><path
       d="m 353,303.68 c 0,-1.65 -1.34,-3 -3,-3 -1.66,0 -3,1.35 -3,3 0,1.66 1.34,3 3,3 1.66,0 3,-1.34 3,-3 z"
       style="fill:#ffffff;fill-opacity:1;fill-rule:nonzero;stroke:none"
       id="path104" /><path
       d="m 353,249.22 h 7"
       style="fill:none;stroke:#b4b4b4;stroke-width:1;stroke-linecap:round;stroke-linejoin:miter;stroke-miterlimit:10;stroke-dasharray:none;stroke-opacity:0.70588"
       id="path110" /><path
       d="m 450.78,350 c 0,-55.66 -45.12,-100.78 -100.78,-100.78 -55.66,0 -100.78,45.12 -100.78,100.78 0,55.66 45.12,100.78 100.78,100.78 55.66,0 100.78,-45.12 100.78,-100.78 z"
       style="fill:none;stroke:#c8c8c8;stroke-width:1;stroke-linecap:round;stroke-linejoin:miter;stroke-miterlimit:10;stroke-dasharray:none;stroke-opacity:0.78431"
       id="path112" /><path
       d="m 353,249.22 c 0,-1.66 -1.34,-3 -3,-3 -1.66,0 -3,1.34 -3,3 0,1.65 1.34,3 3,3 1.66,0 3,-1.35 3,-3 z"
       style="fill:#ffffff;fill-opacity:1;fill-rule:nonzero;stroke:none"
       id="path114" /><path
       d="m 353,301.47 h 7"
       style="fill:none;stroke:#b4b4b4;stroke-width:1;stroke-linecap:round;stroke-linejoin:miter;stroke-miterlimit:10;stroke-dasharray:none;stroke-opacity:0.70588"
       id="path120" /><path
       d="m 398.53,350 c 0,-26.8 -21.73,-48.53 -48.53,-48.53 -26.8,0 -48.53,21.73 -48.53,48.53 0,26.8 21.73,48.53 48.53,48.53 26.8,0 48.53,-21.73 48.53,-48.53 z"
       style="fill:none;stroke:#c8c8c8;stroke-width:1;stroke-linecap:round;stroke-linejoin:miter;stroke-miterlimit:10;stroke-dasharray:none;stroke-opacity:0.78431"
       id="path122" /><path
       d="m 353,301.47 c 0,-1.66 -1.34,-3 -3,-3 -1.66,0 -3,1.34 -3,3 0,1.66 1.34,3 3,3 1.66,0 3,-1.34 3,-3 z"
       style="fill:#ffffff;fill-opacity:1;fill-rule:nonzero;stroke:none"
       id="path124" /><path
       d="m 353,112.27 h 7"
       style="fill:none;stroke:#b4b4b4;stroke-width:1;stroke-linecap:round;stroke-linejoin:miter;stroke-miterlimit:10;stroke-dasharray:none;stroke-opacity:0.70588"
       id="path130" /><path
       d="M 587.73,350 C 587.73,218.71 481.29,112.27 350,112.27 218.71,112.27 112.27,218.71 112.27,350 c 0,131.29 106.44,237.73 237.73,237.73 131.29,0 237.73,-106.44 237.73,-237.73 z"
       style="fill:none;stroke:#c8c8c8;stroke-width:1;stroke-linecap:round;stroke-linejoin:miter;stroke-miterlimit:10;stroke-dasharray:none;stroke-opacity:0.78431"
       id="path132" /><path
       d="m 353,112.27 c 0,-1.65 -1.34,-3 -3,-3 -1.66,0 -3,1.35 -3,3 0,1.66 1.34,3 3,3 1.66,0 3,-1.34 3,-3 z"
       style="fill:#ffffff;fill-opacity:1;fill-rule:nonzero;stroke:none"
       id="path134" /><g
       id="g436"><text
         inkscape:label="helpful"
         id="text58"
         style="font-variant:normal;font-weight:500;font-size:15px;font-family:Avenir;-inkscape-font-specification:Avenir-Medium;writing-mode:lr-tb;fill:#ffffff;fill-opacity:1;fill-rule:nonzero;stroke:none"
         transform="scale(1,-1)"
         x="361"
         y="-306"><tspan
           id="tspan56"
           sodipodi:role="line"
           y="-306"
           x="361 369.34 377.67999 381.28 390.44501 395.44 403.78 407.38 415.72 424.06 430.72">helpfulness</tspan></text><text
         inkscape:label="respons"
         id="text68"
         style="font-variant:normal;font-weight:500;font-size:15px;font-family:Avenir;-inkscape-font-specification:Avenir-Medium;writing-mode:lr-tb;fill:#ffffff;fill-opacity:1;fill-rule:nonzero;stroke:none"
         transform="scale(1,-1)"
         x="361"
         y="-305"><tspan
           id="tspan66"
           sodipodi:role="line"
           y="-305"
           x="361 366.53986 374.86972 381.51959 390.67444 399.57431 407.90417 414.55402 418.14389 425.63373 433.96359 442.29346 450.62332 457.27319">responsiveness</tspan></text><text
         inkscape:label="generos"
         id="text78"
         style="font-variant:normal;font-weight:500;font-size:15px;font-family:Avenir;-inkscape-font-specification:Avenir-Medium;writing-mode:lr-tb;fill:#ffffff;fill-opacity:1;fill-rule:nonzero;stroke:none"
         transform="scale(1,-1)"
         x="361"
         y="-242"><tspan
           id="tspan76"
           sodipodi:role="line"
           y="-242"
           x="361 370.15036 378.47571 386.80106 395.1264 400.66174 409.5571 416.20245 419.78781 425.32315">generosity</tspan></text><text
         inkscape:label="friendl"
         id="text88"
         style="font-variant:normal;font-weight:500;font-size:15px;font-family:Avenir;-inkscape-font-specification:Avenir-Medium;writing-mode:lr-tb;fill:#ffffff;fill-opacity:1;fill-rule:nonzero;stroke:none"
         transform="scale(1,-1)"
         x="361"
         y="-275"><tspan
           id="tspan86"
           sodipodi:role="line"
           y="-275"
           x="361 365.995 371.54501 375.14499 383.48499 391.82501 400.98999 404.59 408.19 416.53 424.87 431.53">friendliness</tspan></text><text
         inkscape:transform-center-y="0.26868631"
         inkscape:transform-center-x="2.7358068e-06"
         inkscape:label="professional"
         id="text98"
         style="font-variant:normal;font-weight:500;font-size:15px;font-family:Avenir;-inkscape-font-specification:Avenir-Medium;writing-mode:lr-tb;fill:#ffffff;fill-opacity:1;fill-rule:nonzero;stroke:none"
         transform="scale(1,-1)"
         x="233.23965"
         y="-301"><tspan
           id="tspan96"
           sodipodi:role="line"
           y="-301"
           x="233.23965 242.39523 247.93582 256.8364 261.82196 270.15256 276.80313 283.4537 287.04428 295.94489 304.27545 312.05103 315.64163 319.23221 325.88278">professionalism</tspan></text><text
         inkscape:label="thoughf"
         id="text108"
         style="font-variant:normal;font-weight:500;font-size:15px;font-family:Avenir;-inkscape-font-specification:Avenir-Medium;writing-mode:lr-tb;fill:#ffffff;fill-opacity:1;fill-rule:nonzero;stroke:none"
         transform="scale(1,-1)"
         x="240.64056"
         y="-245.22729"><tspan
           id="tspan106"
           sodipodi:role="line"
           y="-245.22729"
           x="240.64056 246.19055 254.53058 263.44055 271.78058 280.94556 289.28555 294.83557 299.83057 308.17056 311.77057 320.11057 328.45056 335.11057">thoughtfulness</tspan></text><text
         inkscape:label="reacti"
         id="text118"
         style="font-variant:normal;font-weight:500;font-size:15px;font-family:Avenir;-inkscape-font-specification:Avenir-Medium;writing-mode:lr-tb;fill:#ffffff;fill-opacity:1;fill-rule:nonzero;stroke:none"
         transform="scale(1,-1)"
         x="361"
         y="-298"><tspan
           id="tspan116"
           sodipodi:role="line"
           y="-298"
           x="361 366.53534 374.86069 382.63104 389.84641 395.38174 398.9671 406.45245 410.03781 415.57315">reactivity</tspan></text><text
         inkscape:label="customer"
         id="text128"
         style="font-variant:normal;font-weight:500;font-size:15px;font-family:Avenir;-inkscape-font-specification:Avenir-Medium;writing-mode:lr-tb;fill:#ffffff;fill-opacity:1;fill-rule:nonzero;stroke:none"
         transform="scale(1,-1)"
         x="361"
         y="-109"><tspan
           id="tspan126"
           sodipodi:role="line"
           y="-109"
           x="361 368.23001 376.57001 383.23001 388.78 397.69 410.47 418.81 424.35999 431.85999 438.51999 446.85999 452.41 459.91 463.51001 470.73999">customer_service</tspan></text><text
         inkscape:label="willingness"
         id="text138"
         style="font-variant:normal;font-weight:500;font-size:15px;font-family:Avenir;-inkscape-font-specification:Avenir-Medium;writing-mode:lr-tb;fill:#ffffff;fill-opacity:1;fill-rule:nonzero;stroke:none"
         transform="scale(1,-1)"
         x="361"
         y="-303"><tspan
           id="tspan136"
           sodipodi:role="line"
           y="-303"
           x="361 372.38501 375.98499 379.58499 383.185 386.785 395.125 404.29001 412.63 420.97 427.63">willingness</tspan></text></g><path
       d="m 353,306.27 h 7"
       style="fill:none;stroke:#b4b4b4;stroke-width:1;stroke-linecap:round;stroke-linejoin:miter;stroke-miterlimit:10;stroke-dasharray:none;stroke-opacity:0.70588"
       id="path140" /><path
       d="m 393.73,350 c 0,-24.15 -19.58,-43.73 -43.73,-43.73 -24.15,0 -43.73,19.58 -43.73,43.73 0,24.15 19.58,43.73 43.73,43.73 24.15,0 43.73,-19.58 43.73,-43.73 z"
       style="fill:none;stroke:#c8c8c8;stroke-width:1;stroke-linecap:round;stroke-linejoin:miter;stroke-miterlimit:10;stroke-dasharray:none;stroke-opacity:0.78431"
       id="path142" /><path
       d="m 353,306.27 c 0,-1.65 -1.34,-3 -3,-3 -1.66,0 -3,1.35 -3,3 0,1.66 1.34,3 3,3 1.66,0 3,-1.34 3,-3 z"
       style="fill:#ffffff;fill-opacity:1;fill-rule:nonzero;stroke:none"
       id="path144" /><path
       id="path456"
       style="fill:#ffffff;fill-opacity:1;fill-rule:nonzero;stroke:none"
       d="m 353,292.79 c 0,-1.66 -1.34,-3 -3,-3 -1.66,0 -3,1.34 -3,3 0,1.65 1.34,3 3,3 1.66,0 3,-1.35 3,-3 z" /></g></svg>
